<svg xmlns="http://www.w3.org/2000/svg" viewBox="0 0 340.06 152.34"><defs><style>.cls-1{fill:none;stroke:#b3b3b3;stroke-miterlimit:10;stroke-width:8px;}</style></defs><g id="Layer_2" data-name="Layer 2"><g id="Layer_1-2" data-name="Layer 1"><path class="cls-1" d="M234.77,147.94c-95.76.78-90.26-.79-186,0a35.34,35.34,0,0,1-10.6,0c-14-2.16-22.38-12.35-24.72-15.31-3-3.82-9.7-13.57-9.42-27.07C4.35,88.85,15.07,78,18.14,74.94c18.43-18.6,45.48-16,53-15.3a79.21,79.21,0,0,1,28.25,8.24A74.58,74.58,0,0,1,106.44,49c12.59-23.31,34.24-33,42.38-36.5s33-14.18,62.4-4.71c3.56,1.15,31.9,10.75,47.1,38.86a76.42,76.42,0,0,1,5.88,14.13,59.28,59.28,0,0,1,14.13-2.36c5-.22,20.79-.7,35.32,9.42C315.29,69,336.81,84.53,336,109.09c-.16,5,1.75,22.37-9.42,30.61-10.19,7.52-23.49,8.75-25.9,8.24"/></g></g></svg>