<svg xmlns="http://www.w3.org/2000/svg" viewBox="0 0 361.05 219.34"><defs><style>.cls-1{fill:#ffd959;}.cls-2,.cls-3{fill:none;stroke-miterlimit:10;stroke-width:8px;}.cls-2{stroke:#ffd959;}.cls-3{stroke:#b3b3b3;}</style></defs><g id="Layer_2" data-name="Layer 2"><g id="Layer_1-2" data-name="Layer 1"><rect class="cls-1" x="66.73" y="6.61" width="9" height="35" rx="4" transform="translate(-3.81 29.07) rotate(-22.49)"/><rect class="cls-1" x="19.61" y="120.27" width="9" height="35" rx="4" transform="translate(-93.96 212.75) rotate(-112.49)"/><rect class="cls-1" x="180.39" y="53.73" width="9" height="35" rx="4" transform="translate(189.79 269.29) rotate(-112.49)"/><rect class="cls-1" x="19.63" y="53.69" width="9" height="35" rx="4" transform="translate(-50.87 66.22) rotate(-67.49)"/><rect class="cls-1" x="133.31" y="6.63" width="9" height="35" rx="4" transform="translate(255.88 99.19) rotate(-157.49)"/><rect class="cls-1" x="100" width="9" height="35" rx="4"/><rect class="cls-1" x="13" y="87" width="9" height="35" rx="4" transform="translate(-87 122) rotate(-90)"/><rect class="cls-1" x="38.48" y="25.48" width="9" height="35" rx="4" transform="translate(-17.8 42.98) rotate(-45)"/><rect class="cls-1" x="161.52" y="25.48" width="9" height="35" rx="4" transform="translate(253.02 190.77) rotate(-135)"/><path class="cls-2" d="M92.11,126.64a79.34,79.34,0,0,1,28.26,8.24A74.49,74.49,0,0,1,127.43,116c9.06-16.76,22.8-26.48,32.83-31.92A60,60,0,1,0,51,133.15C67.61,124.31,86.11,126.07,92.11,126.64Z"/><path class="cls-3" d="M255.76,214.94c-95.76.78-90.26-.79-186,0a35.34,35.34,0,0,1-10.6,0c-14-2.16-22.37-12.35-24.72-15.31-3-3.82-9.7-13.57-9.42-27.07.35-16.71,11.06-27.52,14.13-30.62,18.43-18.6,45.48-16,53-15.3a79.34,79.34,0,0,1,28.26,8.24A74.49,74.49,0,0,1,127.43,116c12.59-23.31,34.24-33,42.39-36.5s33-14.18,62.4-4.71c3.56,1.15,31.89,10.75,47.09,38.86a76.58,76.58,0,0,1,5.89,14.13,59.09,59.09,0,0,1,14.12-2.36c5-.22,20.8-.7,35.32,9.42,1.64,1.14,23.16,16.65,22.37,41.21-.16,5,1.75,22.37-9.41,30.61-10.2,7.52-23.5,8.75-25.91,8.24"/></g></g></svg>