<svg xmlns="http://www.w3.org/2000/svg" viewBox="0 0 412.38 372.6"><defs><style>.cls-1{fill:#56c37b;stroke:#56c37b;stroke-miterlimit:10;stroke-width:8px;}.cls-2{fill:#fa2f26;}</style></defs><g id="Layer_2" data-name="Layer 2"><g id="Layer_1-2" data-name="Layer 1"><path class="cls-1" d="M205.09,213.52a10,10,0,0,0-10,10q-2.51,42.49-5,85a20.25,20.25,0,0,0,7.94,7.06c1.29.63,7.79,3.82,15.06.94a18.25,18.25,0,0,0,9-8q-3.5-42.51-7-85A10,10,0,0,0,205.09,213.52Z"/><path class="cls-1" d="M194.09,221.52c0,11.47-49.56,23.84-92.5,23-40.22-.79-72.33-13.12-92.5-23,20.17-9.88,52.28-22.21,92.5-23C144.53,197.68,194.09,210,194.09,221.52Z"/><path class="cls-1" d="M200.4,238.85c4,8.86-25.25,33.7-54.49,46.32-28,12.11-54.38,12.24-70.68,10.84,9.62-13.24,27-33.05,54.48-46.32C158.39,235.86,196.35,230,200.4,238.85Z"/><path class="cls-1" d="M206.09,12.52c9.88,20.17,22.21,52.28,23,92.5.84,42.93-11.52,92.5-23,92.5s-23.84-49.57-23-92.5C183.88,64.8,196.21,32.69,206.09,12.52Z"/><path class="cls-1" d="M205.7,208.77c-5.74,9.94-54.85-4.14-91.61-26.33C79.66,161.65,58,134.91,45.48,116.27c22.41,1.52,56.39,6.9,91.61,26.33C174.69,163.34,211.44,198.83,205.7,208.77Z"/><path class="cls-1" d="M218.29,221.52c0,11.47,49.57,23.84,92.5,23,40.22-.79,72.33-13.12,92.5-23-20.17-9.88-52.28-22.21-92.5-23C267.86,197.68,218.29,210,218.29,221.52Z"/><path class="cls-1" d="M212,238.85c-4.05,8.86,25.25,33.7,54.48,46.32,28.06,12.11,54.38,12.24,70.69,10.84-9.62-13.24-27-33.05-54.49-46.32C254,235.86,216,230,212,238.85Z"/><path class="cls-1" d="M206.69,208.77c5.73,9.94,54.84-4.14,91.6-26.33,34.44-20.79,56.09-47.53,68.61-66.17-22.41,1.52-56.38,6.9-91.61,26.33C237.69,163.34,201,198.83,206.69,208.77Z"/><rect class="cls-2" x="-42.17" y="164.33" width="497.1" height="43.95" rx="12" transform="translate(-71.29 200.5) rotate(-45)"/></g></g></svg>