<svg xmlns="http://www.w3.org/2000/svg" viewBox="0 0 412.38 395.46"><defs><style>.cls-1{fill:#009245;stroke:#009245;stroke-miterlimit:10;stroke-width:8px;}.cls-2{fill:#ff3b3b;}</style></defs><g id="Layer_2" data-name="Layer 2"><g id="Layer_1-2" data-name="Layer 1"><path class="cls-1" d="M205.09,234.45a10,10,0,0,0-10,10q-2.51,42.49-5,85a20.25,20.25,0,0,0,7.94,7.06c1.29.63,7.79,3.82,15.06.94a18.3,18.3,0,0,0,9-8q-3.5-42.51-7-85A10,10,0,0,0,205.09,234.45Z"/><path class="cls-1" d="M194.09,242.45c0,11.47-49.56,23.84-92.5,23-40.22-.79-72.33-13.12-92.5-23,20.17-9.89,52.28-22.22,92.5-23C144.53,218.6,194.09,231,194.09,242.45Z"/><path class="cls-1" d="M200.4,259.78c4,8.86-25.25,33.7-54.49,46.31-28,12.11-54.38,12.25-70.68,10.85,9.62-13.24,27-33.05,54.48-46.32C158.39,256.79,196.35,250.91,200.4,259.78Z"/><path class="cls-1" d="M206.09,33.45c9.88,20.16,22.21,52.28,23,92.5.84,42.93-11.52,92.5-23,92.5s-23.84-49.57-23-92.5C183.88,85.73,196.21,53.61,206.09,33.45Z"/><path class="cls-1" d="M205.7,229.7c-5.74,9.93-54.85-4.14-91.61-26.34C79.66,182.57,58,155.84,45.48,137.2c22.41,1.52,56.39,6.9,91.61,26.33C174.69,184.27,211.44,219.76,205.7,229.7Z"/><path class="cls-1" d="M218.29,242.45c0,11.47,49.57,23.84,92.5,23,40.22-.79,72.33-13.12,92.5-23-20.17-9.89-52.28-22.22-92.5-23C267.86,218.6,218.29,231,218.29,242.45Z"/><path class="cls-1" d="M212,259.78c-4.05,8.86,25.25,33.7,54.48,46.31,28.06,12.11,54.38,12.25,70.69,10.85-9.62-13.24-27-33.05-54.49-46.32C254,256.79,216,250.91,212,259.78Z"/><path class="cls-1" d="M206.69,229.7c5.73,9.93,54.84-4.14,91.6-26.34,34.44-20.79,56.09-47.52,68.61-66.16-22.41,1.52-56.38,6.9-91.61,26.33C237.69,184.27,201,219.76,206.69,229.7Z"/><rect class="cls-2" x="-56.52" y="174.44" width="526.79" height="46.57" rx="12" transform="translate(-79.22 204.2) rotate(-45)"/></g></g></svg>