<svg xmlns="http://www.w3.org/2000/svg" viewBox="0 0 340.06 237.4"><defs><style>.cls-1{fill:#0071bc;}.cls-2{fill:none;stroke:#b3b3b3;stroke-miterlimit:10;stroke-width:8px;}</style></defs><g id="Layer_2" data-name="Layer 2"><g id="Layer_1-2" data-name="Layer 1"><rect class="cls-1" x="51.01" y="166" width="9" height="35" rx="4" transform="translate(47 375.02) rotate(-160.63)"/><rect class="cls-1" x="83.01" y="166" width="9" height="35" rx="4" transform="translate(109.19 385.64) rotate(-160.63)"/><rect class="cls-1" x="115.01" y="166" width="9" height="35" rx="4" transform="translate(171.38 396.25) rotate(-160.63)"/><rect class="cls-1" x="147.01" y="166" width="9" height="35" rx="4" transform="translate(233.56 406.87) rotate(-160.63)"/><rect class="cls-1" x="183.01" y="166" width="9" height="35" rx="4" transform="translate(303.52 418.81) rotate(-160.63)"/><rect class="cls-1" x="215.01" y="166" width="9" height="35" rx="4" transform="translate(365.71 429.43) rotate(-160.63)"/><rect class="cls-1" x="246.01" y="166" width="9" height="35" rx="4" transform="translate(425.96 439.71) rotate(-160.63)"/><rect class="cls-1" x="278.01" y="166" width="9" height="35" rx="4" transform="translate(488.15 450.32) rotate(-160.63)"/><rect class="cls-1" x="62.01" y="203" width="9" height="35" rx="4" transform="translate(56.1 450.58) rotate(-160.63)"/><rect class="cls-1" x="94.01" y="203" width="9" height="35" rx="4" transform="translate(118.29 461.19) rotate(-160.63)"/><rect class="cls-1" x="162.01" y="203" width="9" height="35" rx="4" transform="translate(250.44 483.75) rotate(-160.63)"/><rect class="cls-1" x="225.01" y="203" width="9" height="35" rx="4" transform="translate(372.87 504.65) rotate(-160.63)"/><rect class="cls-1" x="257.01" y="203" width="9" height="35" rx="4" transform="translate(435.06 515.26) rotate(-160.63)"/><path class="cls-2" d="M234.77,147.94c-95.76.78-90.26-.79-186,0a35.34,35.34,0,0,1-10.6,0c-14-2.16-22.38-12.35-24.72-15.31-3-3.82-9.7-13.57-9.42-27.07C4.35,88.85,15.07,78,18.14,74.94c18.43-18.6,45.48-16,53-15.3a79.21,79.21,0,0,1,28.25,8.24A74.58,74.58,0,0,1,106.44,49c12.59-23.31,34.24-33,42.38-36.5s33-14.18,62.4-4.71c3.56,1.15,31.9,10.75,47.1,38.86a76.42,76.42,0,0,1,5.88,14.13,59.28,59.28,0,0,1,14.13-2.36c5-.22,20.79-.7,35.32,9.42C315.29,69,336.81,84.53,336,109.09c-.16,5,1.75,22.37-9.42,30.61-10.19,7.52-23.49,8.75-25.9,8.24"/></g></g></svg>