<svg xmlns="http://www.w3.org/2000/svg" viewBox="0 0 412.38 318.28"><defs><style>.cls-1{fill:#56c37b;stroke:#56c37b;stroke-miterlimit:10;stroke-width:8px;}</style></defs><g id="Layer_2" data-name="Layer 2"><g id="Layer_1-2" data-name="Layer 1"><path class="cls-1" d="M205.09,210.09a10,10,0,0,0-10,10q-2.51,42.49-5,85a20.17,20.17,0,0,0,7.94,7.06c1.29.64,7.79,3.83,15.06.94a18.21,18.21,0,0,0,9-8q-3.5-42.49-7-85A10,10,0,0,0,205.09,210.09Z"/><path class="cls-1" d="M194.09,218.09c0,11.48-49.56,23.84-92.5,23-40.22-.79-72.33-13.12-92.5-23,20.17-9.88,52.28-22.21,92.5-23C144.53,194.25,194.09,206.62,194.09,218.09Z"/><path class="cls-1" d="M200.4,235.42c4,8.86-25.25,33.7-54.49,46.32-28,12.11-54.38,12.24-70.68,10.84,9.62-13.24,27-33,54.48-46.32C158.39,232.44,196.35,226.56,200.4,235.42Z"/><path class="cls-1" d="M206.09,9.09c9.88,20.17,22.21,52.29,23,92.5.84,42.94-11.52,92.5-23,92.5s-23.84-49.56-23-92.5C183.88,61.38,196.21,29.26,206.09,9.09Z"/><path class="cls-1" d="M205.7,205.34c-5.74,9.94-54.85-4.13-91.61-26.33C79.66,158.22,58,131.48,45.48,112.84c22.41,1.53,56.39,6.91,91.61,26.33C174.69,159.91,211.44,195.4,205.7,205.34Z"/><path class="cls-1" d="M218.29,218.09c0,11.48,49.57,23.84,92.5,23,40.22-.79,72.33-13.12,92.5-23-20.17-9.88-52.28-22.21-92.5-23C267.86,194.25,218.29,206.62,218.29,218.09Z"/><path class="cls-1" d="M212,235.42c-4.05,8.86,25.25,33.7,54.48,46.32,28.06,12.11,54.38,12.24,70.69,10.84-9.62-13.24-27-33-54.49-46.32C254,232.44,216,226.56,212,235.42Z"/><path class="cls-1" d="M206.69,205.34c5.73,9.94,54.84-4.13,91.6-26.33,34.44-20.79,56.09-47.53,68.61-66.17-22.41,1.53-56.38,6.91-91.61,26.33C237.69,159.91,201,195.4,206.69,205.34Z"/></g></g></svg>