<svg xmlns="http://www.w3.org/2000/svg" viewBox="0 0 209 209"><defs><style>.cls-1{fill:none;stroke:#ffd959;stroke-miterlimit:10;stroke-width:8px;}.cls-2{fill:#ffd959;}</style></defs><g id="Layer_2" data-name="Layer 2"><g id="Layer_1-2" data-name="Layer 1"><circle class="cls-1" cx="104" cy="105" r="60"/><rect class="cls-2" x="66.73" y="6.61" width="9" height="35" rx="4" transform="translate(-3.81 29.07) rotate(-22.49)"/><rect class="cls-2" x="133.27" y="167.39" width="9" height="35" rx="4" transform="translate(-60.24 66.75) rotate(-22.49)"/><rect class="cls-2" x="19.61" y="120.27" width="9" height="35" rx="4" transform="translate(-93.96 212.75) rotate(-112.49)"/><rect class="cls-2" x="180.39" y="53.73" width="9" height="35" rx="4" transform="translate(189.79 269.29) rotate(-112.49)"/><rect class="cls-2" x="19.63" y="53.69" width="9" height="35" rx="4" transform="translate(-50.87 66.22) rotate(-67.49)"/><rect class="cls-2" x="180.37" y="120.31" width="9" height="35" rx="4" transform="translate(-13.23 255.83) rotate(-67.49)"/><rect class="cls-2" x="66.69" y="167.37" width="9" height="35" rx="4" transform="translate(66.16 382.91) rotate(-157.49)"/><rect class="cls-2" x="133.31" y="6.63" width="9" height="35" rx="4" transform="translate(255.88 99.19) rotate(-157.49)"/><rect class="cls-2" x="100" width="9" height="35" rx="4"/><rect class="cls-2" x="100" y="174" width="9" height="35" rx="4"/><rect class="cls-2" x="13" y="87" width="9" height="35" rx="4" transform="translate(-87 122) rotate(-90)"/><rect class="cls-2" x="187" y="87" width="9" height="35" rx="4" transform="translate(87 296) rotate(-90)"/><rect class="cls-2" x="38.48" y="25.48" width="9" height="35" rx="4" transform="translate(-17.8 42.98) rotate(-45)"/><rect class="cls-2" x="161.52" y="148.52" width="9" height="35" rx="4" transform="translate(-68.77 166.02) rotate(-45)"/><rect class="cls-2" x="38.48" y="148.52" width="9" height="35" rx="4" transform="translate(-44.02 313.8) rotate(-135)"/><rect class="cls-2" x="161.52" y="25.48" width="9" height="35" rx="4" transform="translate(253.02 190.77) rotate(-135)"/></g></g></svg>