<svg xmlns="http://www.w3.org/2000/svg" viewBox="0 0 394.09 212.21"><defs><style>.cls-1{fill:none;stroke:#ffd959;stroke-miterlimit:10;stroke-width:8px;}.cls-2{fill:#ffd959;}.cls-3{fill:#fff;}</style></defs><g id="Layer_2" data-name="Layer 2"><g id="Layer_1-2" data-name="Layer 1"><circle class="cls-1" cx="104" cy="105" r="60"/><rect class="cls-2" x="66.73" y="6.61" width="9" height="35" rx="4" transform="translate(-3.81 29.07) rotate(-22.49)"/><rect class="cls-2" x="133.27" y="167.39" width="9" height="35" rx="4" transform="translate(-60.24 66.75) rotate(-22.49)"/><rect class="cls-2" x="19.61" y="120.27" width="9" height="35" rx="4" transform="translate(-93.96 212.75) rotate(-112.49)"/><rect class="cls-2" x="180.39" y="53.73" width="9" height="35" rx="4" transform="translate(189.79 269.29) rotate(-112.49)"/><rect class="cls-2" x="19.63" y="53.69" width="9" height="35" rx="4" transform="translate(-50.87 66.22) rotate(-67.49)"/><rect class="cls-2" x="180.37" y="120.31" width="9" height="35" rx="4" transform="translate(-13.23 255.83) rotate(-67.49)"/><rect class="cls-2" x="66.69" y="167.37" width="9" height="35" rx="4" transform="translate(66.16 382.91) rotate(-157.49)"/><rect class="cls-2" x="133.31" y="6.63" width="9" height="35" rx="4" transform="translate(255.88 99.19) rotate(-157.49)"/><rect class="cls-2" x="100" width="9" height="35" rx="4"/><rect class="cls-2" x="100" y="174" width="9" height="35" rx="4"/><rect class="cls-2" x="13" y="87" width="9" height="35" rx="4" transform="translate(-87 122) rotate(-90)"/><rect class="cls-2" x="187" y="87" width="9" height="35" rx="4" transform="translate(87 296) rotate(-90)"/><rect class="cls-2" x="38.48" y="25.48" width="9" height="35" rx="4" transform="translate(-17.8 42.98) rotate(-45)"/><rect class="cls-2" x="161.52" y="148.52" width="9" height="35" rx="4" transform="translate(-68.77 166.02) rotate(-45)"/><rect class="cls-2" x="38.48" y="148.52" width="9" height="35" rx="4" transform="translate(-44.02 313.8) rotate(-135)"/><rect class="cls-2" x="161.52" y="25.48" width="9" height="35" rx="4" transform="translate(253.02 190.77) rotate(-135)"/><path class="cls-3" d="M167.87,209.64a3.29,3.29,0,0,1-1-2.43V193.85a8,8,0,0,1,3.21-6.93l1.41-1,4.88-3.46Q190.73,172,197.59,166.7a82,82,0,0,0,10.72-9.63c2.57-2.87,3.85-5.41,3.85-7.64a7.27,7.27,0,0,0-.83-3.79c-.56-.9-1.82-1.35-3.79-1.35a6.18,6.18,0,0,0-3.85,1.09,5.91,5.91,0,0,0-1.86,2.12c-.3.69-.75,1.8-1.35,3.34a4.07,4.07,0,0,1-1.93,2.31,7.08,7.08,0,0,1-3.21.65H171.2a2.87,2.87,0,0,1-2.82-2.83,28.93,28.93,0,0,1,5.26-16.75A33.65,33.65,0,0,1,187.57,123a47.69,47.69,0,0,1,19.84-4q17.72,0,28.05,7.64t10.34,21.12a27.34,27.34,0,0,1-6.87,18q-6.87,8.16-20.86,17.78l-.9.64h27.09a3.52,3.52,0,0,1,3.47,3.47v19.52a3.52,3.52,0,0,1-3.47,3.46H170.31A3.3,3.3,0,0,1,167.87,209.64Z"/><path class="cls-3" d="M274.56,208.36q-9.24-3.86-13.93-10.4a25.86,25.86,0,0,1-4.95-14.51,2.71,2.71,0,0,1,.84-2,2.74,2.74,0,0,1,2-.83h25.94a5.64,5.64,0,0,1,4.62,2.05,14.09,14.09,0,0,0,3.46,3.53,8.6,8.6,0,0,0,4.5,1,7.84,7.84,0,0,0,5.58-2.12,7.63,7.63,0,0,0,2.25-5.84,7.94,7.94,0,0,0-2.12-5.53,7.37,7.37,0,0,0-5.71-2.31,9.6,9.6,0,0,0-3.47.52,10,10,0,0,0-2.57,1.54,3.75,3.75,0,0,1-2.18,1H263.26a2.85,2.85,0,0,1-2.82-2.83l5.13-46.48a4.61,4.61,0,0,1,1.67-3.27,5.29,5.29,0,0,1,3.34-1.09H328a3.52,3.52,0,0,1,3.47,3.47v18.1a3.5,3.5,0,0,1-3.47,3.46H290.48l-1,9.12a23.83,23.83,0,0,1,7.26-3.4,40.76,40.76,0,0,1,10-1,32.37,32.37,0,0,1,26.83,14.5,26.76,26.76,0,0,1,4.49,15,29.17,29.17,0,0,1-4.68,16q-4.69,7.32-14,11.69t-22.4,4.36Q283.81,212.21,274.56,208.36Z"/><path class="cls-3" d="M356.34,165.35a24.33,24.33,0,0,1-9.18-8.86,24.51,24.51,0,0,1,0-24.91,24.4,24.4,0,0,1,9.18-8.86,26.28,26.28,0,0,1,25.17,0,24.4,24.4,0,0,1,9.18,8.86,24.51,24.51,0,0,1,0,24.91,24.33,24.33,0,0,1-9.18,8.86,26.28,26.28,0,0,1-25.17,0ZM376,151.1a10.58,10.58,0,1,0-7.06,2.7A9.54,9.54,0,0,0,376,151.1Z"/></g></g></svg>